<svg width="603" height="819" viewBox="0 0 603 819" fill="none" xmlns="http://www.w3.org/2000/svg">
<mask id="mask0" mask-type="alpha" maskUnits="userSpaceOnUse" x="0" y="0" width="603" height="819">
<path d="M602.959 0H0V819H602.959V0Z" fill="#B36D6D"/>
</mask>
<g mask="url(#mask0)">
<path d="M584.082 708.213C770.677 600.448 838.436 367.937 735.032 188.784C631.627 9.63124 396.449 -47.9278 209.854 59.8352C23.2585 167.599 -44.4977 400.109 58.9055 579.262C162.308 758.413 397.487 815.972 584.082 708.213Z" stroke="#C8AA6E" stroke-width="2"/>
<path d="M527.252 673.885C694.672 577.199 755.482 368.569 662.689 207.799C569.897 47.0294 358.867 -4.60517 191.448 92.0828C24.0299 188.771 -36.7819 397.4 56.0109 558.17C148.803 718.942 359.834 770.577 527.252 673.885Z" stroke="#C8AA6E" stroke-width="2"/>
</g>
</svg>
