<svg width="245" height="129" viewBox="0 0 245 129" fill="none" xmlns="http://www.w3.org/2000/svg">
<mask id="mask0" mask-type="alpha" maskUnits="userSpaceOnUse" x="0" y="0" width="95" height="129">
<path d="M95 0H0V129H95V0Z" fill="#C4C4C4"/>
</mask>
<g mask="url(#mask0)">
<path d="M92.0258 111.55C121.425 94.576 132.101 57.9535 115.809 29.7352C99.5168 1.51702 62.463 -7.54906 33.0638 9.42461C3.66454 26.3983 -7.01088 63.0208 9.28094 91.2391C25.5727 119.457 62.6265 128.523 92.0258 111.55Z" stroke="#C8AA6E" stroke-width="2"/>
<path d="M83.0719 106.143C109.45 90.9141 119.031 58.053 104.411 32.7303C89.7909 7.40762 56.5417 -0.725294 30.1639 14.5039C3.78608 29.7331 -5.7952 62.5942 8.82488 87.9169C23.4449 113.24 56.6941 121.373 83.0719 106.143Z" stroke="#C8AA6E" stroke-width="2"/>
</g>
<path d="M37.064 57H61.784V48.408H47.096V22.68H37.064V57ZM64.439 57H91.655V48.408H74.471V43.032H88.439V35.496H74.471V30.84H91.175V22.68H64.439V57ZM92.7455 57H102.73L104.41 51.96H116.026L117.706 57H128.362L115.642 22.68H105.418L92.7455 57ZM108.922 38.328C109.498 36.648 110.218 33.912 110.218 33.912H110.314C110.314 33.912 111.082 36.648 111.61 38.328L113.77 45.048H106.666L108.922 38.328ZM130.252 57H140.284V45.048H144.94C147.868 45.048 149.02 46.392 149.644 49.032C150.364 52.104 149.98 56.328 150.94 57H160.828V56.472C159.58 56.136 160.348 51.192 159.436 47.064C158.86 44.376 157.42 42.456 154.635 41.4V41.256C158.236 39.624 160.252 36.84 160.252 32.904C160.252 25.896 154.3 22.68 147.292 22.68H130.252V57ZM140.284 30.552H145.804C148.684 30.552 150.124 31.992 150.124 34.248C150.124 36.648 148.54 37.896 145.66 37.896H140.284V30.552ZM163.439 57H173.135V37.56H173.231L184.127 57H194.495V22.68H184.799V41.976H184.703L173.471 22.68H163.439V57ZM37.064 95H61.784V86.408H47.096V60.68H37.064V95ZM64.439 95H91.655V86.408H74.471V81.032H88.439V73.496H74.471V68.84H91.175V60.68H64.439V95ZM92.7455 95H102.73L104.41 89.96H116.026L117.706 95H128.362L115.642 60.68H105.418L92.7455 95ZM108.922 76.328C109.498 74.648 110.218 71.912 110.218 71.912H110.314C110.314 71.912 111.082 74.648 111.61 76.328L113.77 83.048H106.666L108.922 76.328ZM153.301 95H159.973V76.376H145.813V83.48H150.373C149.749 85.784 147.973 87.752 144.325 87.752C139.477 87.752 136.693 83.576 136.693 77.96C136.693 72.344 139.141 68.312 143.941 68.312C147.013 68.312 149.077 70.136 149.605 72.344H159.301C158.197 64.712 152.533 60.056 143.557 60.056C132.949 60.056 126.517 67.832 126.517 77.96C126.517 83.288 128.101 87.896 131.269 91.256C134.053 94.232 137.989 95.816 142.597 95.816C146.773 95.816 150.277 94.472 152.437 91.352H152.533L153.301 95ZM178.464 95.624C188.736 95.624 193.776 90.344 193.776 81.896V60.68H183.744V82.28C183.744 85.4 182.016 87.608 178.608 87.608C174.912 87.608 173.184 85.64 173.184 82.472V60.68H163.152V81.896C163.152 90.488 168.144 95.624 178.464 95.624ZM197.658 95H224.874V86.408H207.69V81.032H221.658V73.496H207.69V68.84H224.394V60.68H197.658V95Z" fill="#C8AA6E"/>
</svg>
