<svg width="245" height="129" viewBox="0 0 245 129" fill="none" xmlns="http://www.w3.org/2000/svg">
<mask id="mask0" mask-type="alpha" maskUnits="userSpaceOnUse" x="0" y="0" width="95" height="129">
<rect width="95" height="129" fill="#C4C4C4"/>
</mask>
<g mask="url(#mask0)">
<path d="M92.0259 111.55C121.425 94.576 132.101 57.9535 115.809 29.7352C99.5169 1.51699 62.4631 -7.54909 33.0639 9.42458C3.66461 26.3983 -7.01081 63.0208 9.28101 91.2391C25.5728 119.457 62.6266 128.523 92.0259 111.55Z" stroke="#C8AA6E"/>
<path d="M83.072 106.143C109.45 90.9141 119.031 58.053 104.411 32.7303C89.791 7.40757 56.5418 -0.725341 30.164 14.5039C3.78617 29.7331 -5.79511 62.5942 8.82497 87.9169C23.445 113.24 56.6942 121.373 83.072 106.143Z" stroke="#C8AA6E"/>
</g>
<g filter="url(#filter0_d)">
<path d="M45.832 57H44.832V58H45.832V57ZM71.368 57V58H72.368V57H71.368ZM71.368 48.936H72.368V47.936H71.368V48.936ZM55.624 48.936H54.624V49.936H55.624V48.936ZM55.624 23.4H56.624V22.4H55.624V23.4ZM45.832 23.4V22.4H44.832V23.4H45.832ZM45.832 58H71.368V56H45.832V58ZM72.368 57V48.936H70.368V57H72.368ZM71.368 47.936H55.624V49.936H71.368V47.936ZM56.624 48.936V23.4H54.624V48.936H56.624ZM55.624 22.4H45.832V24.4H55.624V22.4ZM44.832 23.4V57H46.832V23.4H44.832ZM74.707 57H73.707V58H74.707V57ZM100.723 57V58H101.723V57H100.723ZM100.723 49.752H101.723V48.752H100.723V49.752ZM84.547 49.752H83.547V50.752H84.547V49.752ZM84.547 43.56V42.56H83.547V43.56H84.547ZM98.995 43.56V44.56H99.995V43.56H98.995ZM98.995 36.552H99.995V35.552H98.995V36.552ZM84.547 36.552H83.547V37.552H84.547V36.552ZM84.547 30.648V29.648H83.547V30.648H84.547ZM100.723 30.648V31.648H101.723V30.648H100.723ZM100.723 23.4H101.723V22.4H100.723V23.4ZM74.707 23.4V22.4H73.707V23.4H74.707ZM74.707 58H100.723V56H74.707V58ZM101.723 57V49.752H99.723V57H101.723ZM100.723 48.752H84.547V50.752H100.723V48.752ZM85.547 49.752V43.56H83.547V49.752H85.547ZM84.547 44.56H98.995V42.56H84.547V44.56ZM99.995 43.56V36.552H97.995V43.56H99.995ZM98.995 35.552H84.547V37.552H98.995V35.552ZM85.547 36.552V30.648H83.547V36.552H85.547ZM84.547 31.648H100.723V29.648H84.547V31.648ZM101.723 30.648V23.4H99.723V30.648H101.723ZM100.723 22.4H74.707V24.4H100.723V22.4ZM73.707 23.4V57H75.707V23.4H73.707ZM127.971 57L127.014 57.2906L127.23 58H127.971V57ZM138.243 57V58H139.658L139.186 56.6661L138.243 57ZM126.339 23.4L127.282 23.0661L127.046 22.4H126.339V23.4ZM114.435 23.4V22.4H113.731L113.494 23.0637L114.435 23.4ZM102.435 57L101.494 56.6637L101.016 58H102.435V57ZM112.707 57V58H113.454L113.666 57.2841L112.707 57ZM114.627 50.52V49.52H113.881L113.668 50.2359L114.627 50.52ZM126.003 50.52L126.96 50.2294L126.745 49.52H126.003V50.52ZM116.835 43.128L115.877 42.8407L115.491 44.128H116.835V43.128ZM118.419 37.848L119.377 38.1353L119.378 38.1313L118.419 37.848ZM120.243 31.032V30.032H119.459L119.272 30.7935L120.243 31.032ZM120.291 31.032L121.268 30.8171L121.095 30.032H120.291V31.032ZM122.163 37.848L121.205 38.133L121.205 38.1353L122.163 37.848ZM123.747 43.128V44.128H125.091L124.705 42.8407L123.747 43.128ZM127.971 58H138.243V56H127.971V58ZM139.186 56.6661L127.282 23.0661L125.397 23.7339L137.301 57.3339L139.186 56.6661ZM126.339 22.4H114.435V24.4H126.339V22.4ZM113.494 23.0637L101.494 56.6637L103.377 57.3363L115.377 23.7363L113.494 23.0637ZM102.435 58H112.707V56H102.435V58ZM113.666 57.2841L115.586 50.8041L113.668 50.2359L111.748 56.7159L113.666 57.2841ZM114.627 51.52H126.003V49.52H114.627V51.52ZM125.046 50.8106L127.014 57.2906L128.928 56.7094L126.96 50.2294L125.046 50.8106ZM117.793 43.4153L119.377 38.1353L117.461 37.5607L115.877 42.8407L117.793 43.4153ZM119.378 38.1313C120.008 36.0015 120.54 34.0182 121.214 31.2705L119.272 30.7935C118.603 33.5178 118.079 35.4705 117.46 37.5647L119.378 38.1313ZM120.243 32.032H120.291V30.032H120.243V32.032ZM119.315 31.2469C119.852 33.6914 120.682 36.3751 121.205 38.133L123.122 37.563C122.588 35.7689 121.786 33.1726 121.268 30.8171L119.315 31.2469ZM121.205 38.1353L122.789 43.4153L124.705 42.8407L123.121 37.5607L121.205 38.1353ZM123.747 42.128H116.835V44.128H123.747V42.128ZM165.034 41.88L164.656 40.9542L162.208 41.9541L164.705 42.8243L165.034 41.88ZM141.082 23.4V22.4H140.082V23.4H141.082ZM141.082 57H140.082V58H141.082V57ZM150.778 57V58H151.778V57H150.778ZM150.778 45.192V44.192H149.778V45.192H150.778ZM161.53 57L160.691 57.5442L160.987 58H161.53V57ZM171.85 57V58H172.571L172.799 57.3162L171.85 57ZM171.898 56.856L172.847 57.1722L173.005 56.6973L172.72 56.2859L171.898 56.856ZM150.778 38.376H149.778V39.376H150.778V38.376ZM150.778 30.36V29.36H149.778V30.36H150.778ZM170.882 49.272C170.882 47.1859 170.431 45.4063 169.478 43.9773C168.521 42.5412 167.115 41.546 165.363 40.9357L164.705 42.8243C166.121 43.318 167.139 44.0748 167.814 45.0867C168.493 46.1057 168.882 47.4701 168.882 49.272H170.882ZM165.412 42.8058C167.249 42.0557 168.832 40.9451 169.955 39.3866C171.083 37.8215 171.698 35.8705 171.698 33.528H169.698C169.698 35.5055 169.185 37.0345 168.333 38.2174C167.476 39.4069 166.227 40.3123 164.656 40.9542L165.412 42.8058ZM171.698 33.528C171.698 29.1385 170.079 26.2508 167.265 24.5326C164.553 22.8761 160.873 22.4 156.922 22.4V24.4C160.795 24.4 164.003 24.8839 166.223 26.2394C168.341 27.5332 169.698 29.7095 169.698 33.528H171.698ZM156.922 22.4H141.082V24.4H156.922V22.4ZM140.082 23.4V57H142.082V23.4H140.082ZM141.082 58H150.778V56H141.082V58ZM151.778 57V45.192H149.778V57H151.778ZM150.778 46.192H155.098V44.192H150.778V46.192ZM155.098 46.192C156.691 46.192 157.633 46.495 158.186 46.9918C158.714 47.4666 159.09 48.3057 159.09 49.896H161.09C161.09 48.0303 160.65 46.5174 159.522 45.5042C158.419 44.513 156.865 44.192 155.098 44.192V46.192ZM159.09 49.896C159.09 53.3874 159.372 55.5113 160.691 57.5442L162.369 56.4558C161.384 54.9367 161.09 53.3166 161.09 49.896H159.09ZM161.53 58H171.85V56H161.53V58ZM172.799 57.3162L172.847 57.1722L170.949 56.5398L170.901 56.6838L172.799 57.3162ZM172.72 56.2859C171.249 54.1663 170.882 52.189 170.882 49.272H168.882C168.882 52.403 169.283 54.8417 171.076 57.4261L172.72 56.2859ZM155.05 37.376H150.778V39.376H155.05V37.376ZM151.778 38.376V30.36H149.778V38.376H151.778ZM150.778 31.36H155.05V29.36H150.778V31.36ZM155.05 31.36C156.776 31.36 157.969 31.4838 158.73 31.8983C159.074 32.0856 159.323 32.3306 159.497 32.6752C159.68 33.0348 159.81 33.5608 159.81 34.344H161.81C161.81 33.3512 161.646 32.4912 161.281 31.7708C160.908 31.0354 160.356 30.5063 159.686 30.1417C158.419 29.4522 156.732 29.36 155.05 29.36V31.36ZM159.81 34.344C159.81 35.0844 159.682 35.5969 159.498 35.9581C159.32 36.3081 159.063 36.568 158.71 36.7707C157.946 37.2091 156.747 37.376 155.05 37.376V39.376C156.761 39.376 158.442 39.2309 159.706 38.5053C160.367 38.126 160.911 37.5909 161.28 36.8654C161.644 36.1511 161.81 35.3076 161.81 34.344H159.81ZM175.629 57H174.629V58H175.629V57ZM184.845 57V58H185.845V57H184.845ZM184.557 34.488V33.488H183.504L183.558 34.5399L184.557 34.488ZM184.653 34.488L185.595 34.1536L185.359 33.488H184.653V34.488ZM188.493 43.176L189.391 42.7363L189.387 42.7287L189.383 42.7212L188.493 43.176ZM195.261 57L194.363 57.4397L194.637 58H195.261V57ZM206.973 57V58H207.973V57H206.973ZM206.973 23.4H207.973V22.4H206.973V23.4ZM197.757 23.4V22.4H196.757V23.4H197.757ZM198.045 46.056V47.056H199.106L199.043 45.9964L198.045 46.056ZM197.949 46.056L197.022 46.4324L197.276 47.056H197.949V46.056ZM193.725 36.744L194.626 36.3102L194.626 36.3098L193.725 36.744ZM187.293 23.4L188.194 22.9658L187.921 22.4H187.293V23.4ZM175.629 23.4V22.4H174.629V23.4H175.629ZM175.629 58H184.845V56H175.629V58ZM185.845 57V43.8H183.845V57H185.845ZM185.845 43.8C185.845 42.8207 185.748 38.1473 185.556 34.4361L183.558 34.5399C183.749 38.2207 183.845 42.8593 183.845 43.8H185.845ZM184.557 35.488H184.653V33.488H184.557V35.488ZM183.71 34.8224C184.788 37.8581 186.442 41.3584 187.602 43.6308L189.383 42.7212C188.24 40.4816 186.63 37.0699 185.595 34.1536L183.71 34.8224ZM187.595 43.6157L194.363 57.4397L196.159 56.5603L189.391 42.7363L187.595 43.6157ZM195.261 58H206.973V56H195.261V58ZM207.973 57V23.4H205.973V57H207.973ZM206.973 22.4H197.757V24.4H206.973V22.4ZM196.757 23.4V36.264H198.757V23.4H196.757ZM196.757 36.264C196.757 38.2474 196.853 42.8758 197.047 46.1156L199.043 45.9964C198.853 42.8042 198.757 38.2166 198.757 36.264H196.757ZM198.045 45.056H197.949V47.056H198.045V45.056ZM198.875 45.6796C197.614 42.5753 195.874 38.9018 194.626 36.3102L192.824 37.1778C194.072 39.7702 195.788 43.3927 197.022 46.4324L198.875 45.6796ZM194.626 36.3098L188.194 22.9658L186.392 23.8342L192.824 37.1782L194.626 36.3098ZM187.293 22.4H175.629V24.4H187.293V22.4ZM174.629 23.4V57H176.629V23.4H174.629ZM45.832 95H44.832V96H45.832V95ZM71.368 95V96H72.368V95H71.368ZM71.368 86.936H72.368V85.936H71.368V86.936ZM55.624 86.936H54.624V87.936H55.624V86.936ZM55.624 61.4H56.624V60.4H55.624V61.4ZM45.832 61.4V60.4H44.832V61.4H45.832ZM45.832 96H71.368V94H45.832V96ZM72.368 95V86.936H70.368V95H72.368ZM71.368 85.936H55.624V87.936H71.368V85.936ZM56.624 86.936V61.4H54.624V86.936H56.624ZM55.624 60.4H45.832V62.4H55.624V60.4ZM44.832 61.4V95H46.832V61.4H44.832ZM74.707 95H73.707V96H74.707V95ZM100.723 95V96H101.723V95H100.723ZM100.723 87.752H101.723V86.752H100.723V87.752ZM84.547 87.752H83.547V88.752H84.547V87.752ZM84.547 81.56V80.56H83.547V81.56H84.547ZM98.995 81.56V82.56H99.995V81.56H98.995ZM98.995 74.552H99.995V73.552H98.995V74.552ZM84.547 74.552H83.547V75.552H84.547V74.552ZM84.547 68.648V67.648H83.547V68.648H84.547ZM100.723 68.648V69.648H101.723V68.648H100.723ZM100.723 61.4H101.723V60.4H100.723V61.4ZM74.707 61.4V60.4H73.707V61.4H74.707ZM74.707 96H100.723V94H74.707V96ZM101.723 95V87.752H99.723V95H101.723ZM100.723 86.752H84.547V88.752H100.723V86.752ZM85.547 87.752V81.56H83.547V87.752H85.547ZM84.547 82.56H98.995V80.56H84.547V82.56ZM99.995 81.56V74.552H97.995V81.56H99.995ZM98.995 73.552H84.547V75.552H98.995V73.552ZM85.547 74.552V68.648H83.547V74.552H85.547ZM84.547 69.648H100.723V67.648H84.547V69.648ZM101.723 68.648V61.4H99.723V68.648H101.723ZM100.723 60.4H74.707V62.4H100.723V60.4ZM73.707 61.4V95H75.707V61.4H73.707ZM127.971 95L127.014 95.2906L127.23 96H127.971V95ZM138.243 95V96H139.658L139.186 94.6661L138.243 95ZM126.339 61.4L127.282 61.0661L127.046 60.4H126.339V61.4ZM114.435 61.4V60.4H113.731L113.494 61.0637L114.435 61.4ZM102.435 95L101.494 94.6637L101.016 96H102.435V95ZM112.707 95V96H113.454L113.666 95.2841L112.707 95ZM114.627 88.52V87.52H113.881L113.668 88.2359L114.627 88.52ZM126.003 88.52L126.96 88.2294L126.745 87.52H126.003V88.52ZM116.835 81.128L115.877 80.8407L115.491 82.128H116.835V81.128ZM118.419 75.848L119.377 76.1353L119.378 76.1313L118.419 75.848ZM120.243 69.032V68.032H119.459L119.272 68.7935L120.243 69.032ZM120.291 69.032L121.268 68.8171L121.095 68.032H120.291V69.032ZM122.163 75.848L121.205 76.133L121.205 76.1353L122.163 75.848ZM123.747 81.128V82.128H125.091L124.705 80.8407L123.747 81.128ZM127.971 96H138.243V94H127.971V96ZM139.186 94.6661L127.282 61.0661L125.397 61.7339L137.301 95.3339L139.186 94.6661ZM126.339 60.4H114.435V62.4H126.339V60.4ZM113.494 61.0637L101.494 94.6637L103.377 95.3363L115.377 61.7363L113.494 61.0637ZM102.435 96H112.707V94H102.435V96ZM113.666 95.2841L115.586 88.8041L113.668 88.2359L111.748 94.7159L113.666 95.2841ZM114.627 89.52H126.003V87.52H114.627V89.52ZM125.046 88.8106L127.014 95.2906L128.928 94.7094L126.96 88.2294L125.046 88.8106ZM117.793 81.4153L119.377 76.1353L117.461 75.5607L115.877 80.8407L117.793 81.4153ZM119.378 76.1313C120.008 74.0015 120.54 72.0182 121.214 69.2705L119.272 68.7935C118.603 71.5178 118.079 73.4705 117.46 75.5647L119.378 76.1313ZM120.243 70.032H120.291V68.032H120.243V70.032ZM119.315 69.2469C119.852 71.6914 120.682 74.3751 121.205 76.133L123.122 75.563C122.588 73.7689 121.786 71.1726 121.268 68.8171L119.315 69.2469ZM121.205 76.1353L122.789 81.4153L124.705 80.8407L123.121 75.5607L121.205 76.1353ZM123.747 80.128H116.835V82.128H123.747V80.128ZM154.988 75.848V74.848H153.988V75.848H154.988ZM154.988 82.76H153.988V83.76H154.988V82.76ZM163.388 82.76L164.375 82.9204L164.563 81.76H163.388V82.76ZM150.188 85.832L149.366 86.4024L149.373 86.412L149.38 86.4215L150.188 85.832ZM150.476 70.472L151.273 71.0759L151.278 71.0683L150.476 70.472ZM162.668 73.448L161.692 73.6665L161.899 74.59L162.832 74.4344L162.668 73.448ZM172.748 71.768L172.912 72.7544L173.992 72.5743L173.715 71.5148L172.748 71.768ZM164.54 91.064L165.536 90.9789L165.288 88.0773L163.701 90.519L164.54 91.064ZM164.876 95L163.879 95.0851L163.957 96H164.876V95ZM173.132 95V96H174.132V95H173.132ZM173.132 75.848H174.132V74.848H173.132V75.848ZM153.988 75.848V82.76H155.988V75.848H153.988ZM154.988 83.76H163.388V81.76H154.988V83.76ZM162.401 82.5996C162.122 84.3143 161.414 85.4865 160.441 86.242C159.455 87.0068 158.095 87.424 156.38 87.424V89.424C158.409 89.424 160.24 88.9292 161.667 87.822C163.105 86.7055 164.029 85.0457 164.375 82.9204L162.401 82.5996ZM156.38 87.424C153.607 87.424 152.044 86.6793 150.996 85.2425L149.38 86.4215C150.924 88.5367 153.2 89.424 156.38 89.424V87.424ZM151.009 85.2616C149.992 83.7963 149.556 81.7075 149.556 78.248H147.556C147.556 81.7965 147.984 84.4117 149.366 86.4024L151.009 85.2616ZM149.556 78.248C149.556 74.657 150.259 72.4135 151.273 71.0759L149.679 69.8681C148.292 71.6985 147.556 74.447 147.556 78.248H149.556ZM151.278 71.0683C152.261 69.7452 153.853 69.12 156.284 69.12V67.12C153.53 67.12 151.186 67.8388 149.673 69.8757L151.278 71.0683ZM156.284 69.12C157.984 69.12 159.145 69.5881 159.958 70.3209C160.787 71.0675 161.36 72.1843 161.692 73.6665L163.644 73.2295C163.255 71.4957 162.533 69.9485 161.297 68.8351C160.046 67.7079 158.375 67.12 156.284 67.12V69.12ZM162.832 74.4344L172.912 72.7544L172.583 70.7816L162.503 72.4616L162.832 74.4344ZM173.715 71.5148C172.722 67.7197 170.642 64.7359 167.643 62.713C164.656 60.6982 160.824 59.68 156.38 59.68V61.68C160.527 61.68 163.943 62.6298 166.525 64.371C169.094 66.104 170.902 68.6643 171.78 72.0212L173.715 71.5148ZM156.38 59.68C150.373 59.68 145.56 61.4711 142.247 64.7581C138.935 68.0451 137.236 72.7148 137.236 78.248H139.236C139.236 73.1251 140.801 69.0109 143.656 66.1779C146.511 63.3449 150.771 61.68 156.38 61.68V59.68ZM137.236 78.248C137.236 84.0657 138.835 88.7091 141.873 91.9033C144.918 95.1038 149.285 96.72 154.556 96.72V94.72C149.698 94.72 145.906 93.2402 143.322 90.5247C140.733 87.8029 139.236 83.7103 139.236 78.248H137.236ZM154.556 96.72C159.319 96.72 163.279 94.8391 165.378 91.609L163.701 90.519C162.057 93.0489 158.817 94.72 154.556 94.72V96.72ZM163.543 91.1491L163.879 95.0851L165.872 94.9149L165.536 90.9789L163.543 91.1491ZM164.876 96H173.132V94H164.876V96ZM174.132 95V75.848H172.132V95H174.132ZM173.132 74.848H154.988V76.848H173.132V74.848ZM208.55 61.4H209.55V60.4H208.55V61.4ZM198.614 61.4V60.4H197.614V61.4H198.614ZM187.574 61.4H188.574V60.4H187.574V61.4ZM177.638 61.4V60.4H176.638V61.4H177.638ZM193.094 96.72C198.333 96.72 202.462 95.6965 205.296 93.4426C208.175 91.1533 209.55 87.731 209.55 83.336H207.55C207.55 87.293 206.333 90.0627 204.051 91.8774C201.725 93.7275 198.127 94.72 193.094 94.72V96.72ZM209.55 83.336V61.4H207.55V83.336H209.55ZM208.55 60.4H198.614V62.4H208.55V60.4ZM197.614 61.4V82.616H199.614V61.4H197.614ZM197.614 82.616C197.614 84.2678 197.104 85.2679 196.392 85.8754C195.653 86.5068 194.539 86.848 193.094 86.848V88.848C194.816 88.848 196.463 88.4452 197.691 87.3966C198.947 86.3241 199.614 84.7082 199.614 82.616H197.614ZM193.094 86.848C191.648 86.848 190.535 86.5068 189.795 85.8754C189.083 85.2679 188.574 84.2678 188.574 82.616H186.574C186.574 84.7082 187.24 86.3241 188.496 87.3966C189.725 88.4452 191.371 88.848 193.094 88.848V86.848ZM188.574 82.616V61.4H186.574V82.616H188.574ZM187.574 60.4H177.638V62.4H187.574V60.4ZM176.638 61.4V83.336H178.638V61.4H176.638ZM176.638 83.336C176.638 87.731 178.013 91.1533 180.891 93.4426C183.725 95.6965 187.855 96.72 193.094 96.72V94.72C188.061 94.72 184.462 93.7275 182.136 91.8774C179.855 90.0627 178.638 87.293 178.638 83.336H176.638ZM213.926 95H212.926V96H213.926V95ZM239.942 95V96H240.942V95H239.942ZM239.942 87.752H240.942V86.752H239.942V87.752ZM223.766 87.752H222.766V88.752H223.766V87.752ZM223.766 81.56V80.56H222.766V81.56H223.766ZM238.214 81.56V82.56H239.214V81.56H238.214ZM238.214 74.552H239.214V73.552H238.214V74.552ZM223.766 74.552H222.766V75.552H223.766V74.552ZM223.766 68.648V67.648H222.766V68.648H223.766ZM239.942 68.648V69.648H240.942V68.648H239.942ZM239.942 61.4H240.942V60.4H239.942V61.4ZM213.926 61.4V60.4H212.926V61.4H213.926ZM213.926 96H239.942V94H213.926V96ZM240.942 95V87.752H238.942V95H240.942ZM239.942 86.752H223.766V88.752H239.942V86.752ZM224.766 87.752V81.56H222.766V87.752H224.766ZM223.766 82.56H238.214V80.56H223.766V82.56ZM239.214 81.56V74.552H237.214V81.56H239.214ZM238.214 73.552H223.766V75.552H238.214V73.552ZM224.766 74.552V68.648H222.766V74.552H224.766ZM223.766 69.648H239.942V67.648H223.766V69.648ZM240.942 68.648V61.4H238.942V68.648H240.942ZM239.942 60.4H213.926V62.4H239.942V60.4ZM212.926 61.4V95H214.926V61.4H212.926Z" fill="#C8AA6E"/>
</g>
<defs>
<filter id="filter0_d" x="40.832" y="22.4" width="204.11" height="82.32" filterUnits="userSpaceOnUse" color-interpolation-filters="sRGB">
<feFlood flood-opacity="0" result="BackgroundImageFix"/>
<feColorMatrix in="SourceAlpha" type="matrix" values="0 0 0 0 0 0 0 0 0 0 0 0 0 0 0 0 0 0 127 0"/>
<feOffset dy="4"/>
<feGaussianBlur stdDeviation="2"/>
<feColorMatrix type="matrix" values="0 0 0 0 0 0 0 0 0 0 0 0 0 0 0 0 0 0 0.25 0"/>
<feBlend mode="normal" in2="BackgroundImageFix" result="effect1_dropShadow"/>
<feBlend mode="normal" in="SourceGraphic" in2="effect1_dropShadow" result="shape"/>
</filter>
</defs>
</svg>
